<!-- Generated by tools/build-svg.mjs. Edit tools/svg/ instead. -->
<svg xmlns="http://www.w3.org/2000/svg" viewBox="0 0 600 550" role="img" aria-labelledby="title desc">
  <title id="title">Software engineering illustration with connected web and desktop applications</title>
  <desc id="desc">Original illustrated profile artwork with slow CSS animations. Respects reduced motion.</desc>
  <style>
    svg{--bg:#152235;--panel:#1d3049;--ink:#edf5ff;--muted:#afbed0;--line:#496581;--blue:#77afea;--soft:#223d5c;--cyan:#88c0d0;--warm:#ffb077}
    .canvas{fill:var(--bg);stroke:var(--line)}
    svg{font-family:Arial,Helvetica,sans-serif}
    .panel{fill:var(--panel);stroke:var(--line);stroke-width:1.5}.soft{fill:var(--soft)}
    .outlined{stroke:var(--line);stroke-width:1.5}.line,.rule,.connector,.packet,.wave,.check,.shield,.spark{fill:none;stroke-linecap:round;stroke-linejoin:round}
    .line{stroke:var(--blue);stroke-width:2.3}.rule{stroke:var(--line);stroke-width:2}
    .connector{stroke:var(--line);stroke-width:2;stroke-dasharray:3 9}
    .packet{stroke:var(--cyan);stroke-width:3;stroke-dasharray:12 88;animation:travel 12s linear infinite}
    .ink{fill:var(--ink)}.muted{fill:var(--muted)}.accent{fill:var(--blue)}.blue-fill,.dot,.bar{fill:var(--blue)}
    .cyan{fill:var(--cyan)}.warm{fill:var(--warm)}.on-blue{fill:var(--panel)}
    .halo{fill:var(--soft);opacity:.7}.warm-halo{fill:var(--warm);opacity:.07}
    .wave{stroke:var(--cyan);stroke-width:1.6;opacity:.26;animation:wave 16s ease-in-out infinite}.second{opacity:.13;animation-delay:-8s}
    .float{animation:float 8s ease-in-out infinite}.float-slow{animation:float 11s ease-in-out infinite}
    .pulse{animation:pulse 6s ease-in-out infinite}.bar{transform-box:fill-box;transform-origin:center bottom;animation:bar 10s ease-in-out infinite}
    .bubble{fill:none;stroke:var(--line);stroke-width:1.5}.scan{stroke:var(--warm);stroke-width:2.5}
    .scanner{animation:scan 12s ease-in-out infinite}.check{stroke:var(--cyan);stroke-width:4;stroke-dasharray:100;animation:check 12s ease-in-out infinite}
    .shield{stroke:var(--blue);stroke-width:2.4}.spark{stroke:var(--cyan);stroke-width:2;animation:pulse 9s ease-in-out infinite}
    @keyframes travel{from{stroke-dashoffset:100}to{stroke-dashoffset:-100}}
    @keyframes float{0%,100%{transform:translateY(0)}50%{transform:translateY(-6px)}}
    @keyframes wave{50%{transform:translate(0,-9px)}}
    @keyframes pulse{50%{opacity:.55}}
    @keyframes bar{50%{transform:scaleY(.82)}}
    @keyframes scan{0%,15%,100%{transform:translateY(0);opacity:.3}50%,75%{transform:translateY(78px);opacity:1}}
    @keyframes check{0%,10%{stroke-dashoffset:100}35%,85%{stroke-dashoffset:0}100%{stroke-dashoffset:100}}
    @media(prefers-reduced-motion:reduce){.motion{animation:none!important}.scanner{transform:translateY(48px)}.check{stroke-dashoffset:0}}
  </style>
  <rect x="1" y="1" width="598" height="548" rx="22" class="canvas" />
  <circle cx="362" cy="384" r="118" class="halo" />
  <path d="M24 468C161 418 194 501 350 451S491 468 576 385" class="wave motion" />
  <rect x="32" y="32" width="360" height="48" rx="24" class="soft" />
  <text x="52" y="64" font-size="24" text-anchor="start" class="ink" letter-spacing="1.4">SOFTWARE ENGINEER</text>
  <text x="32" y="139" font-size="46" text-anchor="start" class="ink" font-weight="700">Ideas into</text>
  <text x="32" y="197" font-size="46" text-anchor="start" class="ink" font-weight="700">working software.</text>
  <text x="32" y="244" font-size="24" text-anchor="start" class="ink" letter-spacing="1">WEB  /  DESKTOP  /  PRODUCT</text>
  <path d="M140 365H158Q177 365 177 385V427H194" class="connector" />
<path d="M140 365H158Q177 365 177 385V427H194" class="packet motion" pathLength="100" style="animation-delay:0s" />
  <path d="M452 464H479V385" class="connector" />
<path d="M452 464H479V385" class="packet motion" pathLength="100" style="animation-delay:-4s" />
  <g transform="translate(-454 261) scale(1)" id="database">
    <g>
      <rect x="502" y="68" width="84" height="64" rx="0" class="panel" />
      <ellipse cx="544" cy="132" rx="42" ry="12" class="panel" />
      <path d="M502 90c0 16 84 16 84 0M502 111c0 16 84 16 84 0" class="rule" />
      <ellipse cx="544" cy="68" rx="42" ry="12" class="soft outlined" />
    </g>
  </g>
  <g transform="translate(-399 212) scale(1)" id="laptop">
    <g>
      <rect x="601" y="177" width="242" height="127" rx="12" class="panel" />
      <rect x="611" y="187" width="222" height="24" rx="7" class="soft" />
      <circle cx="623" cy="199" r="3" class="dot" />
      <circle cx="635" cy="199" r="3" class="cyan" />
      <circle cx="647" cy="199" r="3" class="warm" />
      <path d="M611 220h222" class="rule" />
      <text x="623" y="258" font-size="32" class="accent">{</text>
      <rect x="652" y="238" width="64" height="5" rx="2" class="blue-fill" />
      <rect x="652" y="256" width="88" height="5" rx="2" class="soft" />
      <rect x="652" y="274" width="50" height="5" rx="2" class="blue-fill" />
      <text x="811" y="285" font-size="28" class="accent">}</text>
      <path d="M584 310h276l-18 10H601Z" class="soft outlined" />
    </g>
  </g>
  <g transform="translate(-398.99 214.61) scale(0.89)" id="web">
    <g>
      <rect x="891" y="51" width="191" height="131" rx="12" class="panel" />
      <rect x="901" y="61" width="171" height="24" rx="7" class="soft" />
      <circle cx="913" cy="73" r="3" class="dot" />
      <circle cx="925" cy="73" r="3" class="cyan" />
      <circle cx="937" cy="73" r="3" class="warm" />
      <path d="M901 94h171" class="rule" />
      <rect x="905" y="105" width="163" height="31" rx="7" class="soft" />
      <rect x="905" y="145" width="77.5" height="23" rx="7" class="soft" />
      <rect x="990.5" y="145" width="77.5" height="23" rx="7" class="soft" />
    </g>
  </g>
  <g transform="translate(-310 256.2) scale(0.8)" id="answer-sheet">
    <g class="float motion" style="animation-delay:-3s">
      <g transform="translate(1005 211) scale(0.72)">
        <rect x="0" y="0" width="108" height="144" rx="12" class="panel" />
        <path d="M17 20h65M17 125h73" class="rule" />
        <circle cx="22" cy="43" r="4" class="bubble" />
        <circle cx="43" cy="43" r="4" class="blue-fill" />
        <circle cx="64" cy="43" r="4" class="bubble" />
        <circle cx="85" cy="43" r="4" class="bubble" />
        <circle cx="22" cy="63" r="4" class="bubble" />
        <circle cx="43" cy="63" r="4" class="bubble" />
        <circle cx="64" cy="63" r="4" class="bubble" />
        <circle cx="85" cy="63" r="4" class="blue-fill" />
        <circle cx="22" cy="83" r="4" class="blue-fill" />
        <circle cx="43" cy="83" r="4" class="bubble" />
        <circle cx="64" cy="83" r="4" class="bubble" />
        <circle cx="85" cy="83" r="4" class="bubble" />
        <circle cx="22" cy="103" r="4" class="bubble" />
        <circle cx="43" cy="103" r="4" class="bubble" />
        <circle cx="64" cy="103" r="4" class="blue-fill" />
        <circle cx="85" cy="103" r="4" class="bubble" />
        <g class="scanner motion">
          <path d="M10 36h88" class="scan" />
        </g>
      </g>
    </g>
  </g>
</svg>
